<?xml version="1.0" encoding="UTF-8"?>
<svg id="Capa_1" xmlns="http://www.w3.org/2000/svg" version="1.1" viewBox="0 0 42 40">
  <!-- Generator: Adobe Illustrator 29.5.1, SVG Export Plug-In . SVG Version: 2.1.0 Build 141)  -->
  <defs>
    <style>
      .st0 {
        fill: #272620;
      }
    </style>
  </defs>
  <path class="st0" d="M34.1,16.1h0v-2.1h-2v-2h4v-2h2v-2h2v-4h-2v-2h-2V0h-4v2h-2v2h-2v4H12v4h10v2h-2v2h-2v2h-2v2h-2v2H0v6h16.1v-1.9h2v-2h3.9v4h-2v2h-2v2h-2v2h-2v4h2v2h2v-2h2v-2h2v-2h2v-2h2v-2h2v-2h2v-4h-1.9v-2h-2v-2h2v-2h4v2h9.9v-4h-7.9ZM28,10v-2h2v2h-2ZM30,10h2v2h-2v-2Z"/>
</svg>