<?xml version="1.0" encoding="UTF-8"?>
<svg id="Capa_1" xmlns="http://www.w3.org/2000/svg" version="1.1" viewBox="0 0 35 35">
  <!-- Generator: Adobe Illustrator 29.5.1, SVG Export Plug-In . SVG Version: 2.1.0 Build 141)  -->
  <defs>
    <style>
      .st0 {
        fill: #272620;
      }
    </style>
  </defs>
  <path d="M17.4,35l-12.4-3.5L2.2,0h30.6l-2.8,31.5-12.4,3.5h-.3ZM27.1,6.4H7.9l1.1,11.7h13.2l-.4,5-4.2,1.2h-.3s-4.1-1.2-4.1-1.2l-.3-3.2h-3.8l.6,6.3,7.8,2.2,7.8-2.1,1.1-11.9h-13.9l-.3-4h14.6c.2,0,.3-3.6.4-3.9Z"/>
  <path class="st0" d="M17.4,35l-12.4-3.5L2.2,0h30.6l-2.8,31.5-12.4,3.5h-.3ZM27.1,6.4H7.9l1.1,11.7h13.2l-.4,5-4.2,1.2h-.3s-4.1-1.2-4.1-1.2l-.3-3.2h-3.8l.6,6.3,7.8,2.2,7.8-2.1,1.1-11.9h-13.9l-.3-4h14.6c.2,0,.3-3.6.4-3.9Z"/>
</svg>